HIERARCHY
ROOT joint_Root
{
	OFFSET 0.0 0.0 0.0
	CHANNELS 6 Xposition Yposition Zposition Zrotation Xrotation Yrotation 
	JOINT Hips
	{
		OFFSET 4.5925 91.4895 -427.239
		CHANNELS 6 Xposition Yposition Zposition Zrotation Xrotation Yrotation 
		JOINT Spine
		{
			OFFSET 15.7357 0.0 0.0
			CHANNELS 6 Xposition Yposition Zposition Zrotation Xrotation Yrotation 
			JOINT Chest
			{
				OFFSET 8.98455 -0.406207 0.0
				CHANNELS 6 Xposition Yposition Zposition Zrotation Xrotation Yrotation 
				JOINT Neck
				{
					OFFSET 16.3773 0.0 0.0
					CHANNELS 6 Xposition Yposition Zposition Zrotation Xrotation Yrotation 
					JOINT Head
					{
						OFFSET 6.45672 0.0 0.0
						CHANNELS 6 Xposition Yposition Zposition Zrotation Xrotation Yrotation 
						End Site
						{
							OFFSET 0.0 0.0 0.0
						}
					}
				}
				JOINT Shoulder_L
				{
					OFFSET 12.9942 -0.242716 4.98039
					CHANNELS 6 Xposition Yposition Zposition Zrotation Xrotation Yrotation 
					JOINT UpperArm_L
					{
						OFFSET 5.34809 0.0 0.0
						CHANNELS 6 Xposition Yposition Zposition Zrotation Xrotation Yrotation 
						JOINT LowerArm_L
						{
							OFFSET 24.3286 1.87007e-05 0.0
							CHANNELS 6 Xposition Yposition Zposition Zrotation Xrotation Yrotation 
							JOINT Hand_L
							{
								OFFSET 22.2916 0.0 0.0
								CHANNELS 6 Xposition Yposition Zposition Zrotation Xrotation Yrotation 
								End Site
								{
									OFFSET 0.0 0.0 0.0
								}
							}
						}
					}
				}
				JOINT Shoulder_R
				{
					OFFSET 12.9945 -0.242716 -4.98039
					CHANNELS 6 Xposition Yposition Zposition Zrotation Xrotation Yrotation 
					JOINT UpperArm_R
					{
						OFFSET -5.34813 0.0 0.0
						CHANNELS 6 Xposition Yposition Zposition Zrotation Xrotation Yrotation 
						JOINT LowerArm_R
						{
							OFFSET -24.3289 0.000322201 0.0
							CHANNELS 6 Xposition Yposition Zposition Zrotation Xrotation Yrotation 
							JOINT Hand_R
							{
								OFFSET -22.2915 -0.000108084 0.0
								CHANNELS 6 Xposition Yposition Zposition Zrotation Xrotation Yrotation 
								End Site
								{
									OFFSET 0.0 0.0 0.0
								}
							}
						}
					}
				}
			}
		}
		JOINT UpperLeg_L
		{
			OFFSET -2.19248 -6.46944 0.0
			CHANNELS 6 Xposition Yposition Zposition Zrotation Xrotation Yrotation 
			JOINT LowerLeg_L
			{
				OFFSET 39.0811 0.0 -1.23785e-05
				CHANNELS 6 Xposition Yposition Zposition Zrotation Xrotation Yrotation 
				JOINT Foot_L
				{
					OFFSET 40.9854 0.0 -1.26872e-05
					CHANNELS 6 Xposition Yposition Zposition Zrotation Xrotation Yrotation 
					JOINT Toes_L
					{
						OFFSET 11.7543 0.0 0.0
						CHANNELS 6 Xposition Yposition Zposition Zrotation Xrotation Yrotation 
						End Site
						{
							OFFSET 0.0 0.0 0.0
						}
					}
				}
			}
		}
		JOINT UpperLeg_R
		{
			OFFSET -2.19251 6.46944 0.0
			CHANNELS 6 Xposition Yposition Zposition Zrotation Xrotation Yrotation 
			JOINT LowerLeg_R
			{
				OFFSET -39.0811 -0.00228153 -0.0401928
				CHANNELS 6 Xposition Yposition Zposition Zrotation Xrotation Yrotation 
				JOINT Foot_R
				{
					OFFSET -40.9854 0.0 0.0
					CHANNELS 6 Xposition Yposition Zposition Zrotation Xrotation Yrotation 
					JOINT Toes_R
					{
						OFFSET -11.7543 0.0 0.0
						CHANNELS 6 Xposition Yposition Zposition Zrotation Xrotation Yrotation 
						End Site
						{
							OFFSET 0.0 0.0 0.0
						}
					}
				}
			}
		}
	}
}
MOTION
Frames:	6
Frame Time:	0.0333333
0.000000 0.000000 0.000000 0.000000 0.000000 -0.000000 -9.314730 89.448200 -1.749310 84.429300 -0.960755 13.059700 15.735700 0.000005 -0.000001 86.373300 82.578300 -85.117700 8.984550 -0.406207 -0.000000 7.059990 -0.943385 2.566700 16.377300 -0.000001 -0.000001 22.466100 0.180910 5.586970 6.456720 -0.000001 -0.000000 14.915600 -0.025766 -7.834880 12.994200 -0.242716 4.980390 -90.770400 2.546290 -73.161100 5.348090 -0.000007 -0.000001 -66.887900 35.515900 -8.681680 24.328600 0.000019 0.000005 7.178520 24.482800 -16.904700 22.291600 -0.000001 0.000005 7.719080 5.237760 1.753960 12.994500 -0.242716 -4.980390 90.598800 -1.859090 -72.143000 -5.348130 -0.000001 -0.000004 -50.971800 -52.357000 -63.745100 -24.328900 0.000322 -0.000009 -0.218847 -0.403363 -28.369000 -22.291500 -0.000108 -0.000004 21.540900 5.284770 0.495642 -2.192480 -6.469440 -0.000000 -163.596000 -6.356070 -2.040050 39.081100 -0.000007 -0.000012 -0.365346 0.485515 36.962000 40.985400 -0.000006 -0.000013 -6.469620 5.066480 -70.969100 11.754300 -0.000000 0.000003 -0.000088 -0.000927 -16.613200 -2.192510 6.469440 -0.000001 -176.355000 26.688200 -176.420000 -39.081100 -0.002282 -0.040193 -0.131211 0.217383 31.747900 -40.985400 0.000008 0.000006 9.910150 10.713300 -73.618200 -11.754300 -0.000006 -0.000006 -0.001969 -0.028327 -17.724900
0.000000 0.000000 0.000000 0.000000 0.000000 -0.000000 -9.265140 89.447900 -1.702190 84.447600 -1.533150 12.959500 15.735700 0.000005 -0.000001 85.804300 82.576300 -84.436800 8.984550 -0.406207 -0.000000 7.057120 -1.090960 2.799420 16.377300 -0.000001 -0.000001 22.347100 0.261869 5.479950 6.456720 -0.000001 -0.000000 14.942700 0.064674 -8.077900 12.994200 -0.242716 4.980390 -90.789100 2.614230 -73.198100 5.348090 -0.000007 -0.000001 -67.201200 35.768800 -8.661640 24.328600 0.000019 0.000005 7.011550 24.294500 -16.643000 22.291600 -0.000001 0.000005 7.704090 5.239170 1.717450 12.994500 -0.242716 -4.980390 90.571000 -1.785920 -72.267300 -5.348130 -0.000001 -0.000004 -52.484200 -52.164700 -64.677900 -24.328900 0.000322 -0.000009 -0.485125 -0.927389 -27.565700 -22.291500 -0.000108 -0.000004 21.217600 5.264870 1.037010 -2.192480 -6.469440 -0.000000 -163.559000 -6.745560 -1.896990 39.081100 -0.000007 -0.000012 -0.361817 0.480935 36.955700 40.985400 -0.000006 -0.000013 -6.498790 4.882650 -71.073200 11.754300 -0.000000 0.000003 -0.000087 -0.000914 -16.612700 -2.192510 6.469440 -0.000001 -176.305000 26.305100 -176.515000 -39.081100 -0.002282 -0.040193 -0.132575 0.219108 31.804000 -40.985400 0.000008 0.000006 9.950280 10.902500 -73.642700 -11.754300 -0.000006 -0.000006 -0.002075 -0.029656 -17.779000
0.000000 0.000000 0.000000 0.000000 0.000000 -0.000000 -9.192800 89.462000 -1.662340 84.493100 -2.209350 12.854700 15.735700 0.000005 -0.000001 85.264200 82.567400 -83.806700 8.984550 -0.406207 -0.000000 7.066980 -1.231880 2.988020 16.377300 -0.000001 -0.000001 22.300600 0.265792 5.562070 6.456720 -0.000001 -0.000000 14.813300 0.116481 -7.953880 12.994200 -0.242716 4.980390 -90.786800 2.609980 -73.216900 5.348090 -0.000007 -0.000001 -67.447100 36.147300 -8.780060 24.328600 0.000019 0.000005 7.003940 24.128600 -16.727300 22.291600 -0.000001 0.000005 7.660740 5.242920 1.619210 12.994500 -0.242716 -4.980390 90.553600 -1.736390 -72.312700 -5.348130 -0.000001 -0.000004 -53.788900 -51.783700 -66.121200 -24.328900 0.000322 -0.000009 -0.865842 -1.680760 -27.231400 -22.291500 -0.000108 -0.000004 21.011800 5.245230 1.558940 -2.192480 -6.469440 -0.000000 -163.543000 -7.221980 -1.687990 39.081100 -0.000007 -0.000012 -0.364727 0.486172 36.878100 40.985400 -0.000006 -0.000013 -6.517080 4.678670 -71.154900 11.754300 -0.000000 0.000003 -0.000084 -0.000885 -16.611600 -2.192510 6.469440 -0.000001 -176.281000 25.778900 -176.595000 -39.081100 -0.002282 -0.040193 -0.134477 0.221993 31.824900 -40.985400 0.000008 0.000006 9.956700 11.094500 -73.636500 -11.754300 -0.000006 -0.000006 -0.002029 -0.029079 -17.755500
0.000000 0.000000 0.000000 0.000000 0.000000 -0.000000 -9.116630 89.470900 -1.610760 84.567400 -2.869300 12.750100 15.735700 0.000005 -0.000001 84.622700 82.565100 -83.081400 8.984550 -0.406207 -0.000000 7.060700 -1.398130 3.165710 16.377300 -0.000001 -0.000001 22.267300 0.160615 5.860430 6.456720 -0.000001 -0.000000 14.759400 0.039534 -7.694850 12.994200 -0.242716 4.980390 -90.790100 2.634290 -73.297700 5.348090 -0.000007 -0.000001 -67.591200 36.543600 -8.936010 24.328600 0.000019 0.000005 7.141240 23.865700 -17.205600 22.291600 -0.000001 0.000005 7.652110 5.248770 1.465460 12.994500 -0.242716 -4.980390 90.563300 -1.761950 -72.268000 -5.348130 -0.000001 -0.000004 -54.640900 -51.193700 -67.760200 -24.328900 0.000322 -0.000009 -1.238000 -2.371520 -27.554400 -22.291500 -0.000108 -0.000004 20.857100 5.232300 1.896120 -2.192480 -6.469440 -0.000000 -163.566000 -7.682170 -1.484610 39.081100 -0.000007 -0.000012 -0.362468 0.484356 36.810200 40.985400 -0.000006 -0.000013 -6.542470 4.453590 -71.245700 11.754300 -0.000000 0.000003 -0.000094 -0.000975 -16.615000 -2.192510 6.469440 -0.000001 -176.307000 25.368900 -176.683000 -39.081100 -0.002282 -0.040193 -0.131477 0.216705 31.878700 -40.985400 0.000008 0.000006 9.998160 11.341300 -73.663900 -11.754300 -0.000006 -0.000006 -0.002053 -0.029382 -17.767800
0.000000 0.000000 0.000000 0.000000 0.000000 -0.000000 -9.047810 89.491500 -1.541690 84.648100 -3.499990 12.676300 15.735700 0.000005 -0.000001 83.878200 82.574900 -82.256100 8.984550 -0.406207 -0.000000 7.026200 -1.588660 3.338360 16.377300 -0.000001 -0.000001 22.343600 -0.078457 6.209320 6.456720 -0.000001 -0.000000 14.751200 -0.162287 -7.230100 12.994200 -0.242716 4.980390 -90.789600 2.656020 -73.436800 5.348090 -0.000007 -0.000001 -67.650400 36.948100 -9.172810 24.328600 0.000019 0.000005 7.399130 23.758100 -17.866000 22.291600 -0.000001 0.000005 7.839670 5.255700 1.281340 12.994500 -0.242716 -4.980390 90.587600 -1.827120 -72.167200 -5.348130 -0.000001 -0.000004 -54.633100 -50.370700 -69.163500 -24.328900 0.000322 -0.000009 -1.689810 -3.095170 -28.634300 -22.291500 -0.000108 -0.000004 21.034100 5.237460 1.761990 -2.192480 -6.469440 -0.000000 -163.557000 -8.225680 -1.204420 39.081100 -0.000007 -0.000012 -0.363008 0.487523 36.672100 40.985400 -0.000006 -0.000013 -6.534390 4.348800 -71.304100 11.754300 -0.000000 0.000003 -0.000090 -0.000944 -16.613800 -2.192510 6.469440 -0.000001 -176.362000 24.951300 -176.689000 -39.081100 -0.002282 -0.040193 -0.129411 0.213496 31.865200 -40.985400 0.000008 0.000006 10.017700 11.573000 -73.671900 -11.754300 -0.000006 -0.000006 -0.002000 -0.028722 -17.741000
0.000000 0.000000 0.000000 0.000000 0.000000 -0.000000 -8.988160 89.507900 -1.485970 84.702300 -4.080110 12.591100 15.735700 0.000005 -0.000001 82.907400 82.578900 -81.191100 8.984550 -0.406207 -0.000000 6.995250 -1.837870 3.541420 16.377300 -0.000001 -0.000001 22.379600 -0.373892 6.579000 6.456720 -0.000001 -0.000000 14.863900 -0.462836 -6.701610 12.994200 -0.242716 4.980390 -90.785000 2.661800 -73.562700 5.348090 -0.000007 -0.000001 -67.565700 37.398800 -9.635770 24.328600 0.000019 0.000005 7.563340 23.216000 -18.615100 22.291600 -0.000001 0.000005 7.751160 5.262220 1.107630 12.994500 -0.242716 -4.980390 90.619800 -1.903360 -71.959400 -5.348130 -0.000001 -0.000004 -54.190700 -49.361800 -70.812600 -24.328900 0.000322 -0.000009 -2.019100 -3.469920 -30.206100 -22.291500 -0.000108 -0.000004 21.309400 5.253080 1.351440 -2.192480 -6.469440 -0.000000 -163.536000 -8.706380 -0.988620 39.081100 -0.000007 -0.000012 -0.361508 0.487365 36.567400 40.985400 -0.000006 -0.000013 -6.532500 4.244800 -71.358800 11.754300 -0.000000 0.000003 -0.000089 -0.000929 -16.613300 -2.192510 6.469440 -0.000001 -176.387000 24.562700 -176.723000 -39.081100 -0.002282 -0.040193 -0.131088 0.216230 31.860800 -40.985400 0.000008 0.000006 10.036300 11.788600 -73.677500 -11.754300 -0.000006 -0.000006 -0.001933 -0.027880 -17.706800
